<svg width="15" height="19" viewBox="0 0 15 19" fill="none" xmlns="http://www.w3.org/2000/svg">
<path d="M5.7364 1.66296C6.95489 1.47631 8.17892 1.5803 9.33715 2.02249C10.0416 2.29144 10.6943 2.64444 11.2454 3.16724C11.8188 3.7112 12.1541 4.53075 12.3357 5.28733C12.7319 6.93902 12.6177 8.79032 11.1916 9.92872C10.5664 10.4278 9.83993 10.8049 9.03805 10.8926C8.4348 10.9585 7.821 10.9415 7.30111 10.5904C6.90016 10.3197 6.59063 9.9122 6.39303 9.47559C6.03546 8.68553 5.9542 7.95943 6.48291 7.2264C7.14912 6.30273 8.35448 6.03417 9.43637 5.99677C11.8506 5.9133 13.0213 8.27891 13.2528 10.355C13.3772 11.4709 12.958 12.5582 12.3636 13.4874C11.3549 15.0644 9.68151 16.0358 7.89651 16.501C6.64493 16.8272 5.12273 17.1376 3.8379 16.8315C3.47446 16.7449 2.99174 16.6236 2.70599 16.3709" stroke="black" stroke-width="0.6" stroke-linecap="round"/>
<path d="M2.61133 16.1958C2.62017 16.293 2.69167 16.3627 2.75112 16.4345C2.96097 16.6877 3.17505 16.9363 3.38873 17.1863C3.55607 17.3821 3.74781 17.6183 3.96156 17.7608" stroke="black" stroke-width="0.6" stroke-linecap="round"/>
<path d="M2.67383 16.1651C3.00286 16.1145 3.31614 15.8876 3.63024 15.7815C3.8533 15.7063 4.07872 15.6252 4.30024 15.5514" stroke="black" stroke-width="0.6" stroke-linecap="round"/>
</svg>
